<mxfile host="app.diagrams.net" modified="2022-04-29T03:57:50.258Z" agent="5.0 (Macintosh; Intel Mac OS X 10_15_7) AppleWebKit/537.36 (KHTML, like Gecko) Chrome/100.0.4896.127 Safari/537.36" etag="U1UWglIsV5HHLlNs78QR" version="17.4.6" type="github">
  <diagram id="Jz7jiPReGSWlGxYQV9XC" name="Page-1">
    <mxGraphModel dx="570" dy="318" grid="0" gridSize="10" guides="1" tooltips="1" connect="1" arrows="1" fold="1" page="1" pageScale="1" pageWidth="1169" pageHeight="827" math="0" shadow="0">
      <root>
        <mxCell id="0" />
        <mxCell id="1" parent="0" />
        <mxCell id="1Br1p4Hg47mZ34FnwUjO-4" value="" style="rounded=0;whiteSpace=wrap;html=1;fillColor=#EC4C2C;gradientColor=none;" vertex="1" parent="1">
          <mxGeometry x="415" y="284" width="294" height="180" as="geometry" />
        </mxCell>
        <mxCell id="1Br1p4Hg47mZ34FnwUjO-2" value="" style="rounded=0;whiteSpace=wrap;html=1;fillColor=#CCFFCC;gradientColor=none;" vertex="1" parent="1">
          <mxGeometry x="464" y="332" width="193" height="95" as="geometry" />
        </mxCell>
        <mxCell id="1Br1p4Hg47mZ34FnwUjO-1" value="backgroud" style="rounded=0;whiteSpace=wrap;html=1;" vertex="1" parent="1">
          <mxGeometry x="523" y="366" width="75" height="27" as="geometry" />
        </mxCell>
        <mxCell id="1Br1p4Hg47mZ34FnwUjO-3" value="key1 : msg1" style="text;html=1;strokeColor=none;fillColor=none;align=center;verticalAlign=middle;whiteSpace=wrap;rounded=0;" vertex="1" parent="1">
          <mxGeometry x="485" y="340" width="143" height="23" as="geometry" />
        </mxCell>
        <mxCell id="1Br1p4Hg47mZ34FnwUjO-5" value="key2 : msg2" style="text;html=1;strokeColor=none;fillColor=none;align=center;verticalAlign=middle;whiteSpace=wrap;rounded=0;" vertex="1" parent="1">
          <mxGeometry x="503.5" y="297" width="106" height="23" as="geometry" />
        </mxCell>
        <mxCell id="1Br1p4Hg47mZ34FnwUjO-9" value="" style="endArrow=classic;html=1;rounded=0;fontSize=16;" edge="1" parent="1">
          <mxGeometry width="50" height="50" relative="1" as="geometry">
            <mxPoint x="531" y="393" as="sourcePoint" />
            <mxPoint x="531" y="553" as="targetPoint" />
          </mxGeometry>
        </mxCell>
        <mxCell id="1Br1p4Hg47mZ34FnwUjO-10" value="start" style="edgeLabel;html=1;align=center;verticalAlign=middle;resizable=0;points=[];fontSize=16;labelBackgroundColor=none;" vertex="1" connectable="0" parent="1Br1p4Hg47mZ34FnwUjO-9">
          <mxGeometry x="-0.4" y="1" relative="1" as="geometry">
            <mxPoint x="-3" y="42" as="offset" />
          </mxGeometry>
        </mxCell>
        <mxCell id="1Br1p4Hg47mZ34FnwUjO-11" value="" style="endArrow=classic;html=1;rounded=0;fontSize=16;" edge="1" parent="1">
          <mxGeometry width="50" height="50" relative="1" as="geometry">
            <mxPoint x="591" y="553" as="sourcePoint" />
            <mxPoint x="591" y="393" as="targetPoint" />
          </mxGeometry>
        </mxCell>
        <mxCell id="1Br1p4Hg47mZ34FnwUjO-12" value="end" style="edgeLabel;html=1;align=center;verticalAlign=middle;resizable=0;points=[];fontSize=16;" vertex="1" connectable="0" parent="1Br1p4Hg47mZ34FnwUjO-11">
          <mxGeometry x="-0.4" y="1" relative="1" as="geometry">
            <mxPoint y="-22" as="offset" />
          </mxGeometry>
        </mxCell>
      </root>
    </mxGraphModel>
  </diagram>
</mxfile>
